<svg xmlns="http://www.w3.org/2000/svg" viewBox="0 0 97.67 97.67"><defs><style>.cls-1{fill:#def;stroke:#000;stroke-miterlimit:10;stroke-width:2px;}.cls-2{fill:#d93361;}</style></defs><title>cross</title><g id="Layer_1" data-name="Layer 1"><circle class="cls-1" cx="48.84" cy="48.84" r="47.84"/><circle class="cls-1" cx="48.84" cy="48.84" r="45.87"/><path class="cls-2" d="M76.64,36.45H61.22V21A4.25,4.25,0,0,0,57,16.79H40.7A4.25,4.25,0,0,0,36.45,21V36.45H21a4.25,4.25,0,0,0-4.25,4.25V57A4.25,4.25,0,0,0,21,61.22H36.45V76.64a4.24,4.24,0,0,0,4.25,4.24H57a4.24,4.24,0,0,0,4.25-4.24V61.22H76.64A4.24,4.24,0,0,0,80.88,57V40.7A4.24,4.24,0,0,0,76.64,36.45Z"/></g></svg>