<svg xmlns="http://www.w3.org/2000/svg" viewBox="0 0 297.33 168"><defs><style>.cls-1{fill:#fff;}</style></defs><title>insure-quoter-logo</title><g id="Layer_1" data-name="Layer 1"><path class="cls-1" d="M38.63,12.5V85.79H29.8V12.5Z"/><path class="cls-1" d="M47.16,41.5c0-5.08-.1-9.24-.4-13.3h7.92l.5,8.12h.21a18.06,18.06,0,0,1,16.24-9.24C78.43,27.08,89,31.14,89,48V77.33H80.06V49c0-7.92-3-14.52-11.37-14.52A13.11,13.11,0,0,0,56.1,47.79V77.33H47.16Z"/><path class="cls-1" d="M94.7,68.2a23.47,23.47,0,0,0,11.77,3.55c6.5,0,9.55-3.25,9.55-7.31,0-4.27-2.54-6.6-9.14-9-8.83-3.14-13-8-13-13.9,0-7.92,6.39-14.42,17-14.42a24.58,24.58,0,0,1,12.08,3.05l-2.23,6.49a19.23,19.23,0,0,0-10-2.84c-5.28,0-8.23,3-8.23,6.7,0,4.06,3,5.89,9.34,8.33,8.53,3.24,12.9,7.51,12.9,14.82,0,8.63-6.71,14.72-18.38,14.72A28.1,28.1,0,0,1,92.47,75Z"/><path class="cls-1" d="M169.63,63.93c0,5.08.1,9.54.41,13.4h-7.92l-.51-8h-.2a18.49,18.49,0,0,1-16.24,9.14c-7.72,0-17-4.27-17-21.53V28.2h8.94V55.4c0,9.34,2.84,15.64,11,15.64a12.94,12.94,0,0,0,11.78-8.12,13.33,13.33,0,0,0,.81-4.58V28.2h8.93Z"/><path class="cls-1" d="M176.86,43.52c0-5.78-.1-10.75-.4-15.32h7.81l.31,9.65h.4c2.24-6.61,7.62-10.77,13.61-10.77a9.32,9.32,0,0,1,2.53.31v8.42a13.53,13.53,0,0,0-3-.3c-6.29,0-10.76,4.77-12,11.47a25.36,25.36,0,0,0-.41,4.16V77.33h-8.83Z"/><path class="cls-1" d="M206.42,54.39c.2,12.08,7.91,17.06,16.85,17.06a32.32,32.32,0,0,0,13.6-2.54l1.52,6.39c-3.14,1.42-8.52,3-16.34,3-15.13,0-24.16-9.95-24.16-24.77s8.73-26.5,23-26.5c16,0,20.31,14.11,20.31,23.15a33.79,33.79,0,0,1-.31,4.16ZM232.61,48c.1-5.69-2.34-14.53-12.39-14.53-9,0-13,8.34-13.7,14.53Z"/><path class="cls-1" d="M131.68,123.18c0,5.07.11,9.54.41,13.4h-7.92l-.51-8h-.2a18.47,18.47,0,0,1-16.24,9.13c-7.72,0-17-4.26-17-21.52V87.45H99.2v27.2c0,9.34,2.84,15.64,11,15.64a12.57,12.57,0,0,0,12.59-12.7V87.45h8.93Z"/><path class="cls-1" d="M183.38,111.61c0,18.17-12.59,26.08-24.47,26.08-13.29,0-23.55-9.74-23.55-25.27,0-16.44,10.76-26.09,24.37-26.09C173.84,86.33,183.38,96.58,183.38,111.61Zm-39,.5c0,10.76,6.19,18.89,14.92,18.89,8.53,0,14.92-8,14.92-19.09,0-8.32-4.16-18.88-14.72-18.88S144.4,102.77,144.4,112.11Z"/><path class="cls-1" d="M217.42,113.63c.21,12.09,7.92,17.06,16.86,17.06a32.16,32.16,0,0,0,13.6-2.54l1.52,6.39c-3.15,1.43-8.53,3.05-16.34,3.05-15.13,0-24.16-10-24.16-24.77s8.73-26.49,23-26.49c16,0,20.3,14.11,20.3,23.14a34,34,0,0,1-.3,4.16Zm26.2-6.39c.1-5.68-2.34-14.52-12.39-14.52-9,0-13,8.33-13.7,14.52Z"/><path class="cls-1" d="M255.72,102.77c0-5.78-.1-10.75-.41-15.32h7.82l.3,9.64h.41c2.23-6.6,7.61-10.76,13.6-10.76a9.4,9.4,0,0,1,2.54.31v8.42a13.08,13.08,0,0,0-3.05-.31c-6.29,0-10.76,4.77-12,11.48a25.3,25.3,0,0,0-.4,4.15v26.2h-8.83Z"/><path class="cls-1" d="M100.42,151.72,79.69,131c-.09-.08-.2-.11-.29-.19a34,34,0,0,0,8.29-22.14A34.69,34.69,0,1,0,71.4,137.78a4.51,4.51,0,0,0,.59.9l20.73,20.74a5.44,5.44,0,0,0,7.7-7.7ZM29.05,108.66a24.25,24.25,0,1,1,24.24,24.25A24.28,24.28,0,0,1,29.05,108.66Z"/><path class="cls-1" d="M210.61,94.25v-6.8H197.82V75.25h-8.73v12.2h-7.61v6.8h7.61v26.8c0,5.78.91,10.15,3.45,12.78,2.13,2.44,5.48,3.76,9.64,3.76a21.83,21.83,0,0,0,7.92-1.22l-.4-6.69a20.14,20.14,0,0,1-5.18.61c-5,0-6.7-3.46-6.7-9.55V94.25Z"/></g></svg>